# xmcd
#
# Track frame offsets: 
#        300
#        22848
#        60322
#        84526
#        102072
#        125575
#        146356
#
# Disc length: 2331 seconds
#
# Revision: 2
# Processed by: cddbd v1.5.2PL0 Copyright (c) Steve Scherf et al.
# Submitted via: ExactAudioCopy v1.0b1
#
DISCID=4e091707
DTITLE=Albert Collins - Frozen Alive!
DYEAR=1981
DGENRE=Texas Blues
TTITLE0=Frosty
TTITLE1=Angel Of Mercy
TTITLE2=I Got That Feeling
TTITLE3=Caldonia
TTITLE4=Things I Used To Do
TTITLE5=Got A Mind To Travel
TTITLE6=Cold Cuts
EXTD=
EXTT0=
EXTT1=
EXTT2=
EXTT3=
EXTT4=
EXTT5=
EXTT6=
PLAYORDER=
